<?xml version="1.0" encoding="UTF-8" standalone="no"?>
<!DOCTYPE svg PUBLIC "-//W3C//DTD SVG 1.1//EN"
 "http://www.w3.org/Graphics/SVG/1.1/DTD/svg11.dtd">
<!-- Generated by graphviz version 2.38.0 (20140413.2041)
 -->
<!-- Title: simple_conversion Pages: 1 -->
<svg width="1046pt" height="89pt"
 viewBox="0.00 0.00 1045.76 88.79" xmlns="http://www.w3.org/2000/svg" xmlns:xlink="http://www.w3.org/1999/xlink">
<g id="graph0" class="graph" transform="scale(1 1) rotate(0) translate(4 84.7935)">
<title>simple_conversion</title>
<polygon fill="white" stroke="none" points="-4,4 -4,-84.7935 1041.76,-84.7935 1041.76,4 -4,4"/>
<!-- setup -->
<g id="node1" class="node"><title>setup</title>
<polygon fill="none" stroke="black" points="41.3621,-58.3968 0.137465,-40.3968 41.3621,-22.3968 82.5867,-40.3968 41.3621,-58.3968"/>
<text text-anchor="middle" x="41.3621" y="-36.6968" font-family="Times,serif" font-size="14.00">setup</text>
</g>
<!-- input -->
<g id="node3" class="node"><title>input</title>
<polygon fill="none" stroke="black" points="166.724,-58.3968 118.724,-58.3968 118.724,-22.3968 172.724,-22.3968 172.724,-52.3968 166.724,-58.3968"/>
<polyline fill="none" stroke="black" points="166.724,-58.3968 166.724,-52.3968 "/>
<polyline fill="none" stroke="black" points="172.724,-52.3968 166.724,-52.3968 "/>
<text text-anchor="middle" x="145.724" y="-36.6968" font-family="Times,serif" font-size="14.00">input</text>
</g>
<!-- setup&#45;&gt;input -->
<g id="edge1" class="edge"><title>setup&#45;&gt;input</title>
<path fill="none" stroke="black" d="M82.8183,-40.3968C91.3055,-40.3968 100.205,-40.3968 108.525,-40.3968"/>
<polygon fill="black" stroke="black" points="108.679,-43.8969 118.679,-40.3968 108.679,-36.8969 108.679,-43.8969"/>
</g>
<!-- cleanup -->
<g id="node2" class="node"><title>cleanup</title>
<polygon fill="none" stroke="black" points="983.531,-58.3968 929.07,-40.3968 983.531,-22.3968 1037.99,-40.3968 983.531,-58.3968"/>
<text text-anchor="middle" x="983.531" y="-36.6968" font-family="Times,serif" font-size="14.00">cleanup</text>
</g>
<!-- pre_1 -->
<g id="node6" class="node"><title>pre_1</title>
<ellipse fill="none" stroke="black" cx="230.822" cy="-40.3968" rx="22.1965" ry="22.1965"/>
<text text-anchor="start" x="221.822" y="-36.6968" font-family="Times,serif" font-size="14.00">pre</text>
</g>
<!-- input&#45;&gt;pre_1 -->
<g id="edge2" class="edge"><title>input&#45;&gt;pre_1</title>
<path fill="none" stroke="black" d="M173.017,-40.3968C181.108,-40.3968 190.095,-40.3968 198.489,-40.3968"/>
<polygon fill="black" stroke="black" points="198.692,-43.8969 208.692,-40.3968 198.692,-36.8969 198.692,-43.8969"/>
</g>
<!-- output -->
<g id="node4" class="node"><title>output</title>
<polygon fill="none" stroke="black" points="887.301,-58.3968 839.301,-58.3968 839.301,-22.3968 893.301,-22.3968 893.301,-52.3968 887.301,-58.3968"/>
<polyline fill="none" stroke="black" points="887.301,-58.3968 887.301,-52.3968 "/>
<polyline fill="none" stroke="black" points="893.301,-52.3968 887.301,-52.3968 "/>
<text text-anchor="middle" x="866.301" y="-36.6968" font-family="Times,serif" font-size="14.00">output</text>
</g>
<!-- output&#45;&gt;cleanup -->
<g id="edge10" class="edge"><title>output&#45;&gt;cleanup</title>
<path fill="none" stroke="black" d="M893.448,-40.3968C901.168,-40.3968 909.974,-40.3968 918.976,-40.3968"/>
<polygon fill="black" stroke="black" points="919.175,-43.8969 929.175,-40.3968 919.175,-36.8969 919.175,-43.8969"/>
</g>
<!-- pandoc -->
<g id="node5" class="node"><title>pandoc</title>
<ellipse fill="none" stroke="black" cx="499.513" cy="-40.3968" rx="36.304" ry="36.304"/>
<ellipse fill="none" stroke="black" cx="499.513" cy="-40.3968" rx="40.2938" ry="40.2938"/>
<text text-anchor="middle" x="499.513" y="-36.6968" font-family="Times,serif" font-size="14.00">pandoc</text>
</g>
<!-- post_1 -->
<g id="node8" class="node"><title>post_1</title>
<ellipse fill="none" stroke="black" cx="601.258" cy="-40.3968" rx="25.1964" ry="25.1964"/>
<text text-anchor="start" x="589.758" y="-36.6968" font-family="Times,serif" font-size="14.00">post</text>
</g>
<!-- pandoc&#45;&gt;post_1 -->
<g id="edge6" class="edge"><title>pandoc&#45;&gt;post_1</title>
<path fill="none" stroke="black" d="M539.935,-40.3968C548.435,-40.3968 557.359,-40.3968 565.658,-40.3968"/>
<polygon fill="black" stroke="black" points="565.758,-43.8969 575.758,-40.3968 565.758,-36.8969 565.758,-43.8969"/>
</g>
<!-- dots1 -->
<g id="node10" class="node"><title>dots1</title>
<text text-anchor="middle" x="315.92" y="-36.6968" font-family="Times,serif" font-size="14.00">...</text>
</g>
<!-- pre_1&#45;&gt;dots1 -->
<g id="edge3" class="edge"><title>pre_1&#45;&gt;dots1</title>
<path fill="none" stroke="black" d="M253.222,-40.3968C261.033,-40.3968 270.098,-40.3968 278.836,-40.3968"/>
<polygon fill="black" stroke="black" points="278.847,-43.8969 288.847,-40.3968 278.847,-36.8969 278.847,-43.8969"/>
</g>
<!-- pre_N -->
<g id="node7" class="node"><title>pre_N</title>
<ellipse fill="none" stroke="black" cx="401.018" cy="-40.3968" rx="22.1965" ry="22.1965"/>
<text text-anchor="start" x="392.018" y="-36.6968" font-family="Times,serif" font-size="14.00">pre</text>
</g>
<!-- pre_N&#45;&gt;pandoc -->
<g id="edge5" class="edge"><title>pre_N&#45;&gt;pandoc</title>
<path fill="none" stroke="black" d="M423.434,-40.3968C431.018,-40.3968 439.899,-40.3968 448.845,-40.3968"/>
<polygon fill="black" stroke="black" points="448.908,-43.8969 458.908,-40.3968 448.908,-36.8969 448.908,-43.8969"/>
</g>
<!-- dots2 -->
<g id="node11" class="node"><title>dots2</title>
<text text-anchor="middle" x="689.605" y="-36.6968" font-family="Times,serif" font-size="14.00">...</text>
</g>
<!-- post_1&#45;&gt;dots2 -->
<g id="edge7" class="edge"><title>post_1&#45;&gt;dots2</title>
<path fill="none" stroke="black" d="M626.77,-40.3968C634.711,-40.3968 643.694,-40.3968 652.302,-40.3968"/>
<polygon fill="black" stroke="black" points="652.523,-43.8969 662.522,-40.3968 652.522,-36.8969 652.523,-43.8969"/>
</g>
<!-- post_M -->
<g id="node9" class="node"><title>post_M</title>
<ellipse fill="none" stroke="black" cx="777.953" cy="-40.3968" rx="25.1964" ry="25.1964"/>
<text text-anchor="start" x="766.453" y="-36.6968" font-family="Times,serif" font-size="14.00">post</text>
</g>
<!-- post_M&#45;&gt;output -->
<g id="edge9" class="edge"><title>post_M&#45;&gt;output</title>
<path fill="none" stroke="black" d="M803.466,-40.3968C811.406,-40.3968 820.389,-40.3968 828.998,-40.3968"/>
<polygon fill="black" stroke="black" points="829.218,-43.8969 839.218,-40.3968 829.218,-36.8969 829.218,-43.8969"/>
</g>
<!-- dots1&#45;&gt;pre_N -->
<g id="edge4" class="edge"><title>dots1&#45;&gt;pre_N</title>
<path fill="none" stroke="black" d="M343.213,-40.3968C351.304,-40.3968 360.291,-40.3968 368.685,-40.3968"/>
<polygon fill="black" stroke="black" points="368.888,-43.8969 378.888,-40.3968 368.888,-36.8969 368.888,-43.8969"/>
</g>
<!-- dots2&#45;&gt;post_M -->
<g id="edge8" class="edge"><title>dots2&#45;&gt;post_M</title>
<path fill="none" stroke="black" d="M716.982,-40.3968C725.021,-40.3968 733.981,-40.3968 742.473,-40.3968"/>
<polygon fill="black" stroke="black" points="742.505,-43.8969 752.505,-40.3968 742.505,-36.8969 742.505,-43.8969"/>
</g>
</g>
</svg>
