<?xml version="1.0" encoding="UTF-8" standalone="no"?>
<!DOCTYPE svg PUBLIC "-//W3C//DTD SVG 1.1//EN"
 "http://www.w3.org/Graphics/SVG/1.1/DTD/svg11.dtd">
<!-- Generated by graphviz version 2.38.0 (20140413.2041)
 -->
<!-- Title: simple_conversion Pages: 1 -->
<svg width="783pt" height="89pt"
 viewBox="0.00 0.00 782.58 88.79" xmlns="http://www.w3.org/2000/svg" xmlns:xlink="http://www.w3.org/1999/xlink">
<g id="graph0" class="graph" transform="scale(1 1) rotate(0) translate(4 84.7935)">
<title>simple_conversion</title>
<polygon fill="white" stroke="none" points="-4,4 -4,-84.7935 778.577,-84.7935 778.577,4 -4,4"/>
<!-- input -->
<g id="node1" class="node"><title>input</title>
<polygon fill="none" stroke="black" points="48,-58.3968 0,-58.3968 0,-22.3968 54,-22.3968 54,-52.3968 48,-58.3968"/>
<polyline fill="none" stroke="black" points="48,-58.3968 48,-52.3968 "/>
<polyline fill="none" stroke="black" points="54,-52.3968 48,-52.3968 "/>
<text text-anchor="middle" x="27" y="-36.6968" font-family="Times,serif" font-size="14.00">input</text>
</g>
<!-- pre_1 -->
<g id="node4" class="node"><title>pre_1</title>
<ellipse fill="none" stroke="black" cx="112.098" cy="-40.3968" rx="22.1965" ry="22.1965"/>
<text text-anchor="start" x="103.098" y="-36.6968" font-family="Times,serif" font-size="14.00">pre</text>
</g>
<!-- input&#45;&gt;pre_1 -->
<g id="edge1" class="edge"><title>input&#45;&gt;pre_1</title>
<path fill="none" stroke="black" d="M54.2927,-40.3968C62.3835,-40.3968 71.3706,-40.3968 79.7646,-40.3968"/>
<polygon fill="black" stroke="black" points="79.9677,-43.8969 89.9677,-40.3968 79.9677,-36.8969 79.9677,-43.8969"/>
</g>
<!-- output -->
<g id="node2" class="node"><title>output</title>
<polygon fill="none" stroke="black" points="768.577,-58.3968 720.577,-58.3968 720.577,-22.3968 774.577,-22.3968 774.577,-52.3968 768.577,-58.3968"/>
<polyline fill="none" stroke="black" points="768.577,-58.3968 768.577,-52.3968 "/>
<polyline fill="none" stroke="black" points="774.577,-52.3968 768.577,-52.3968 "/>
<text text-anchor="middle" x="747.577" y="-36.6968" font-family="Times,serif" font-size="14.00">output</text>
</g>
<!-- pandoc -->
<g id="node3" class="node"><title>pandoc</title>
<ellipse fill="none" stroke="black" cx="380.789" cy="-40.3968" rx="36.304" ry="36.304"/>
<ellipse fill="none" stroke="black" cx="380.789" cy="-40.3968" rx="40.2938" ry="40.2938"/>
<text text-anchor="middle" x="380.789" y="-36.6968" font-family="Times,serif" font-size="14.00">pandoc</text>
</g>
<!-- post_1 -->
<g id="node6" class="node"><title>post_1</title>
<ellipse fill="none" stroke="black" cx="482.533" cy="-40.3968" rx="25.1964" ry="25.1964"/>
<text text-anchor="start" x="471.033" y="-36.6968" font-family="Times,serif" font-size="14.00">post</text>
</g>
<!-- pandoc&#45;&gt;post_1 -->
<g id="edge5" class="edge"><title>pandoc&#45;&gt;post_1</title>
<path fill="none" stroke="black" d="M421.211,-40.3968C429.71,-40.3968 438.634,-40.3968 446.934,-40.3968"/>
<polygon fill="black" stroke="black" points="447.033,-43.8969 457.033,-40.3968 447.033,-36.8969 447.033,-43.8969"/>
</g>
<!-- dots1 -->
<g id="node8" class="node"><title>dots1</title>
<text text-anchor="middle" x="197.196" y="-36.6968" font-family="Times,serif" font-size="14.00">...</text>
</g>
<!-- pre_1&#45;&gt;dots1 -->
<g id="edge2" class="edge"><title>pre_1&#45;&gt;dots1</title>
<path fill="none" stroke="black" d="M134.498,-40.3968C142.309,-40.3968 151.374,-40.3968 160.111,-40.3968"/>
<polygon fill="black" stroke="black" points="160.122,-43.8969 170.122,-40.3968 160.122,-36.8969 160.122,-43.8969"/>
</g>
<!-- pre_N -->
<g id="node5" class="node"><title>pre_N</title>
<ellipse fill="none" stroke="black" cx="282.294" cy="-40.3968" rx="22.1965" ry="22.1965"/>
<text text-anchor="start" x="273.294" y="-36.6968" font-family="Times,serif" font-size="14.00">pre</text>
</g>
<!-- pre_N&#45;&gt;pandoc -->
<g id="edge4" class="edge"><title>pre_N&#45;&gt;pandoc</title>
<path fill="none" stroke="black" d="M304.709,-40.3968C312.294,-40.3968 321.175,-40.3968 330.121,-40.3968"/>
<polygon fill="black" stroke="black" points="330.184,-43.8969 340.184,-40.3968 330.184,-36.8969 330.184,-43.8969"/>
</g>
<!-- dots2 -->
<g id="node9" class="node"><title>dots2</title>
<text text-anchor="middle" x="570.881" y="-36.6968" font-family="Times,serif" font-size="14.00">...</text>
</g>
<!-- post_1&#45;&gt;dots2 -->
<g id="edge6" class="edge"><title>post_1&#45;&gt;dots2</title>
<path fill="none" stroke="black" d="M508.046,-40.3968C515.986,-40.3968 524.969,-40.3968 533.578,-40.3968"/>
<polygon fill="black" stroke="black" points="533.798,-43.8969 543.798,-40.3968 533.798,-36.8969 533.798,-43.8969"/>
</g>
<!-- post_M -->
<g id="node7" class="node"><title>post_M</title>
<ellipse fill="none" stroke="black" cx="659.229" cy="-40.3968" rx="25.1964" ry="25.1964"/>
<text text-anchor="start" x="647.729" y="-36.6968" font-family="Times,serif" font-size="14.00">post</text>
</g>
<!-- post_M&#45;&gt;output -->
<g id="edge8" class="edge"><title>post_M&#45;&gt;output</title>
<path fill="none" stroke="black" d="M684.742,-40.3968C692.682,-40.3968 701.665,-40.3968 710.274,-40.3968"/>
<polygon fill="black" stroke="black" points="710.494,-43.8969 720.494,-40.3968 710.494,-36.8969 710.494,-43.8969"/>
</g>
<!-- dots1&#45;&gt;pre_N -->
<g id="edge3" class="edge"><title>dots1&#45;&gt;pre_N</title>
<path fill="none" stroke="black" d="M224.489,-40.3968C232.58,-40.3968 241.567,-40.3968 249.961,-40.3968"/>
<polygon fill="black" stroke="black" points="250.164,-43.8969 260.164,-40.3968 250.164,-36.8969 250.164,-43.8969"/>
</g>
<!-- dots2&#45;&gt;post_M -->
<g id="edge7" class="edge"><title>dots2&#45;&gt;post_M</title>
<path fill="none" stroke="black" d="M598.258,-40.3968C606.297,-40.3968 615.257,-40.3968 623.748,-40.3968"/>
<polygon fill="black" stroke="black" points="623.781,-43.8969 633.781,-40.3968 623.781,-36.8969 623.781,-43.8969"/>
</g>
</g>
</svg>
